<?xml version="1.0" encoding="UTF-8"?>
<svg xmlns="http://www.w3.org/2000/svg" height="203" width="203" class="pyqrcode"><path transform="scale(7)" stroke="#000" class="pyqrline" d="M4 4.5h7m5 0h1m1 0h7m-21 1h1m5 0h1m7 0h1m5 0h1m-21 1h1m1 0h3m1 0h1m1 0h2m1 0h1m2 0h1m1 0h3m1 0h1m-21 1h1m1 0h3m1 0h1m1 0h1m1 0h1m3 0h1m1 0h3m1 0h1m-21 1h1m1 0h3m1 0h1m3 0h3m1 0h1m1 0h3m1 0h1m-21 1h1m5 0h1m3 0h1m3 0h1m5 0h1m-21 1h7m1 0h1m1 0h1m1 0h1m1 0h7m-12 1h3m-9 1h2m1 0h2m1 0h3m5 0h2m-19 1h1m1 0h1m2 0h1m1 0h1m1 0h2m3 0h5m-19 1h2m1 0h1m1 0h2m1 0h2m1 0h1m1 0h1m1 0h1m2 0h3m-21 1h2m2 0h2m1 0h1m1 0h1m2 0h2m1 0h2m1 0h1m-18 1h1m2 0h5m5 0h4m1 0h1m-12 1h1m1 0h1m1 0h3m2 0h1m1 0h1m-20 1h7m1 0h1m1 0h1m3 0h1m3 0h1m-19 1h1m5 0h1m2 0h3m1 0h1m3 0h4m-21 1h1m1 0h3m1 0h1m1 0h1m1 0h1m1 0h1m3 0h2m1 0h2m-21 1h1m1 0h3m1 0h1m1 0h1m1 0h4m2 0h1m-17 1h1m1 0h3m1 0h1m3 0h2m1 0h8m-21 1h1m5 0h1m2 0h12m-21 1h7m3 0h1m2 0h1"/></svg>
